if (_typeface_js && _typeface_js.loadFace) _typeface_js.loadFace({"glyphs":{"0":{"ha":943,"x_min":51,"x_max":883,"o":"m 883 1089 l 883 0 l 51 0 l 51 1089 l 883 1089 m 419 292 l 514 292 l 514 797 l 419 797 l 419 292 z "},"1":{"ha":583,"x_min":35,"x_max":524,"o":"m 35 674 l 35 956 l 99 956 l 99 1025 l 168 1025 l 168 1089 l 524 1089 l 524 0 l 168 0 l 168 674 l 35 674 z "},"2":{"ha":978,"x_min":51,"x_max":917,"o":"m 150 588 l 150 690 l 549 690 l 549 801 l 51 801 l 51 1089 l 818 1089 l 818 990 l 917 990 l 917 501 l 818 501 l 818 399 l 411 399 l 411 288 l 917 288 l 917 0 l 51 0 l 51 588 l 150 588 z "},"3":{"ha":935,"x_min":51,"x_max":883,"o":"m 514 288 l 514 399 l 51 399 l 51 690 l 514 690 l 514 801 l 51 801 l 51 1097 l 785 1097 l 785 990 l 883 990 l 883 569 l 824 569 l 824 518 l 883 518 l 883 99 l 785 99 l 785 0 l 51 0 l 51 288 l 514 288 z "},"4":{"ha":926,"x_min":35,"x_max":867,"o":"m 35 399 l 35 1089 l 399 1089 l 399 694 l 501 694 l 501 1089 l 867 1089 l 867 0 l 501 0 l 501 399 l 35 399 z "},"5":{"ha":978,"x_min":51,"x_max":917,"o":"m 540 288 l 540 399 l 150 399 l 150 501 l 51 501 l 51 1089 l 917 1089 l 917 801 l 419 801 l 419 690 l 818 690 l 818 588 l 917 588 l 917 99 l 818 99 l 818 0 l 51 0 l 51 288 l 540 288 z "},"6":{"ha":935,"x_min":51,"x_max":883,"o":"m 883 1089 l 883 801 l 419 801 l 419 690 l 883 690 l 883 0 l 51 0 l 51 1089 l 883 1089 m 419 292 l 514 292 l 514 394 l 419 394 l 419 292 z "},"7":{"ha":917,"x_min":26,"x_max":858,"o":"m 26 801 l 26 1089 l 858 1089 l 858 0 l 493 0 l 493 801 l 26 801 z "},"8":{"ha":943,"x_min":51,"x_max":883,"o":"m 111 518 l 111 569 l 51 569 l 51 1089 l 883 1089 l 883 569 l 824 569 l 824 518 l 883 518 l 883 0 l 51 0 l 51 518 l 111 518 m 419 292 l 514 292 l 514 394 l 419 394 l 419 292 m 419 694 l 514 694 l 514 797 l 419 797 l 419 694 z "},"9":{"ha":943,"x_min":51,"x_max":883,"o":"m 514 288 l 514 399 l 51 399 l 51 1089 l 883 1089 l 883 0 l 51 0 l 51 288 l 514 288 m 419 694 l 514 694 l 514 797 l 419 797 l 419 694 z "}," ":{"ha":694,"x_min":0,"x_max":0,"o":""},"Y":{"ha":1114,"x_min":43,"x_max":1072,"o":"m 271 390 l 271 493 l 168 493 l 168 596 l 43 596 l 43 1081 l 399 1081 l 399 819 l 501 819 l 501 721 l 613 721 l 613 819 l 717 819 l 717 1081 l 1072 1081 l 1072 596 l 947 596 l 947 493 l 844 493 l 844 390 l 742 390 l 742 -8 l 374 -8 l 374 390 l 271 390 z "},"A":{"ha":943,"x_min":51,"x_max":883,"o":"m 883 1089 l 883 0 l 528 0 l 528 292 l 407 292 l 407 0 l 51 0 l 51 1089 l 883 1089 m 411 557 l 524 557 l 524 832 l 411 832 l 411 557 z "},"b":{"ha":943,"x_min":51,"x_max":883,"o":"m 883 1089 l 883 569 l 789 569 l 789 518 l 883 518 l 883 0 l 51 0 l 51 1089 l 883 1089 m 411 292 l 524 292 l 524 394 l 411 394 l 411 292 m 411 694 l 524 694 l 524 797 l 411 797 l 411 694 z "},"c":{"ha":986,"x_min":51,"x_max":943,"o":"m 943 1089 l 943 801 l 411 801 l 411 288 l 943 288 l 943 0 l 51 0 l 51 1089 l 943 1089 z "},"d":{"ha":978,"x_min":51,"x_max":917,"o":"m 818 1089 l 818 990 l 917 990 l 917 99 l 818 99 l 818 0 l 51 0 l 51 1089 l 818 1089 m 411 292 l 557 292 l 557 797 l 411 797 l 411 292 z "},"e":{"ha":926,"x_min":51,"x_max":875,"o":"m 875 1089 l 875 801 l 411 801 l 411 690 l 875 690 l 875 399 l 411 399 l 411 288 l 875 288 l 875 0 l 51 0 l 51 1089 l 875 1089 z "},"f":{"ha":917,"x_min":51,"x_max":875,"o":"m 875 1089 l 875 801 l 411 801 l 411 690 l 875 690 l 875 399 l 407 399 l 407 0 l 51 0 l 51 1089 l 875 1089 z "},"g":{"ha":1021,"x_min":51,"x_max":978,"o":"m 978 1089 l 978 801 l 411 801 l 411 292 l 690 292 l 690 489 l 978 489 l 978 0 l 51 0 l 51 1089 l 978 1089 z "},"h":{"ha":994,"x_min":51,"x_max":935,"o":"m 399 1089 l 399 694 l 588 694 l 588 1089 l 935 1089 l 935 0 l 588 0 l 588 394 l 399 394 l 399 0 l 51 0 l 51 1089 l 399 1089 z "},"i":{"ha":454,"x_min":51,"x_max":394,"o":"m 394 1089 l 394 0 l 51 0 l 51 1089 l 394 1089 z "},"j":{"ha":900,"x_min":26,"x_max":840,"o":"m 493 288 l 493 1089 l 840 1089 l 840 0 l 26 0 l 26 288 l 493 288 z "},"k":{"ha":951,"x_min":51,"x_max":900,"o":"m 399 1089 l 399 806 l 450 806 l 450 956 l 553 956 l 553 1089 l 900 1089 l 900 707 l 785 707 l 785 604 l 678 604 l 678 485 l 785 485 l 785 382 l 900 382 l 900 0 l 553 0 l 553 133 l 450 133 l 450 283 l 399 283 l 399 0 l 51 0 l 51 1089 l 399 1089 z "},"l":{"ha":900,"x_min":51,"x_max":865,"o":"m 399 1089 l 399 288 l 865 288 l 865 0 l 51 0 l 51 1089 l 399 1089 z "},"m":{"ha":1200,"x_min":51,"x_max":1140,"o":"m 399 1089 l 399 956 l 501 956 l 501 806 l 690 806 l 690 956 l 793 956 l 793 1089 l 1140 1089 l 1140 0 l 793 0 l 793 463 l 725 463 l 725 335 l 467 335 l 467 463 l 399 463 l 399 0 l 51 0 l 51 1089 l 399 1089 z "},"n":{"ha":1029,"x_min":51,"x_max":968,"o":"m 399 1089 l 399 913 l 536 913 l 536 729 l 621 729 l 621 1089 l 968 1089 l 968 0 l 621 0 l 621 176 l 485 176 l 485 360 l 399 360 l 399 0 l 51 0 l 51 1089 l 399 1089 z "},"o":{"ha":1054,"x_min":51,"x_max":994,"o":"m 994 1089 l 994 0 l 51 0 l 51 1089 l 994 1089 m 403 292 l 643 292 l 643 797 l 403 797 l 403 292 z "},"p":{"ha":926,"x_min":51,"x_max":883,"o":"m 883 1089 l 883 313 l 407 313 l 407 0 l 51 0 l 51 1089 l 883 1089 m 411 575 l 524 575 l 524 832 l 411 832 l 411 575 z "},"q":{"ha":1054,"x_min":51,"x_max":994,"o":"m 51 -4 l 51 1089 l 994 1089 l 994 -86 l 647 -86 l 647 -4 l 51 -4 m 403 292 l 643 292 l 643 797 l 403 797 l 403 292 z "},"r":{"ha":943,"x_min":51,"x_max":883,"o":"m 883 1089 l 883 467 l 789 467 l 789 415 l 883 415 l 883 0 l 528 0 l 528 394 l 407 394 l 407 0 l 51 0 l 51 1089 l 883 1089 m 411 694 l 524 694 l 524 797 l 411 797 l 411 694 z "},"s":{"ha":960,"x_min":51,"x_max":908,"o":"m 557 288 l 557 399 l 51 399 l 51 1089 l 908 1089 l 908 801 l 403 801 l 403 690 l 908 690 l 908 0 l 51 0 l 51 288 l 557 288 z "},"t":{"ha":917,"x_min":43,"x_max":875,"o":"m 43 801 l 43 1089 l 875 1089 l 875 801 l 639 801 l 639 0 l 279 0 l 279 801 l 43 801 z "},"u":{"ha":994,"x_min":51,"x_max":935,"o":"m 399 1089 l 399 292 l 588 292 l 588 1089 l 935 1089 l 935 0 l 51 0 l 51 1089 l 399 1089 z "},"v":{"ha":943,"x_min":43,"x_max":892,"o":"m 125 167 l 125 364 l 43 364 l 43 1089 l 390 1089 l 390 292 l 544 292 l 544 1089 l 892 1089 l 892 364 l 810 364 l 810 167 l 690 167 l 690 0 l 244 0 l 244 167 l 125 167 z "},"w":{"ha":1200,"x_min":51,"x_max":1140,"o":"m 399 1089 l 399 565 l 467 565 l 467 694 l 725 694 l 725 565 l 793 565 l 793 1089 l 1140 1089 l 1140 0 l 793 0 l 793 99 l 690 99 l 690 222 l 501 222 l 501 99 l 399 99 l 399 0 l 51 0 l 51 1089 l 399 1089 z "},"x":{"ha":943,"x_min":51,"x_max":883,"o":"m 163 493 l 163 596 l 51 596 l 51 1089 l 407 1089 l 407 754 l 528 754 l 528 1089 l 883 1089 l 883 596 l 772 596 l 772 493 l 883 493 l 883 0 l 528 0 l 528 335 l 407 335 l 407 0 l 51 0 l 51 493 l 163 493 z "},"y":{"ha":917,"x_min":43,"x_max":875,"o":"m 158 493 l 158 596 l 43 596 l 43 1089 l 399 1089 l 399 694 l 519 694 l 519 1089 l 875 1089 l 875 596 l 758 596 l 758 493 l 647 493 l 647 0 l 288 0 l 288 493 l 158 493 z "},"z":{"ha":969,"x_min":51,"x_max":908,"o":"m 167 485 l 167 588 l 288 588 l 288 690 l 557 690 l 557 801 l 51 801 l 51 1089 l 908 1089 l 908 604 l 793 604 l 793 501 l 674 501 l 674 399 l 403 399 l 403 288 l 908 288 l 908 0 l 51 0 l 51 485 l 167 485 z "},"U":{"ha":986,"x_min":51,"x_max":935,"o":"m 51 107 l 51 1063 l 399 1063 l 399 265 l 588 265 l 588 1063 l 935 1063 l 935 107 l 801 107 l 801 -26 l 185 -26 l 185 107 l 51 107 z "},"Q":{"ha":1124,"x_min":51,"x_max":1072,"o":"m 185 -12 l 185 124 l 51 124 l 51 947 l 185 947 l 185 1081 l 861 1081 l 861 947 l 999 947 l 999 253 l 1072 253 l 1072 -94 l 647 -94 l 647 -12 l 185 -12 m 403 283 l 643 283 l 643 789 l 403 789 l 403 283 z "},"G":{"ha":1021,"x_min":51,"x_max":978,"o":"m 51 125 l 51 947 l 185 947 l 185 1081 l 978 1081 l 978 793 l 411 793 l 411 283 l 690 283 l 690 481 l 978 481 l 978 -8 l 185 -8 l 185 125 l 51 125 z "},"C":{"ha":978,"x_min":51,"x_max":935,"o":"m 51 133 l 51 956 l 185 956 l 185 1089 l 935 1089 l 935 801 l 403 801 l 403 288 l 935 288 l 935 0 l 185 0 l 185 133 l 51 133 z "},"M":{"ha":1124,"x_min":51,"x_max":1063,"o":"m 399 1089 l 399 956 l 536 956 l 536 832 l 588 832 l 588 956 l 725 956 l 725 1089 l 1063 1089 l 1063 0 l 725 0 l 725 463 l 664 463 l 664 343 l 450 343 l 450 463 l 399 463 l 399 0 l 51 0 l 51 1089 l 399 1089 z "},"N":{"ha":1124,"x_min":51,"x_max":1063,"o":"m 407 1089 l 407 956 l 536 956 l 536 828 l 674 828 l 674 694 l 725 694 l 725 1089 l 1063 1089 l 1063 0 l 725 0 l 725 133 l 588 133 l 588 261 l 450 261 l 450 394 l 399 394 l 399 0 l 51 0 l 51 1089 l 407 1089 z "},"O":{"ha":1114,"x_min":51,"x_max":1063,"o":"m 51 133 l 51 956 l 176 956 l 176 1089 l 931 1089 l 931 956 l 1063 956 l 1063 133 l 931 133 l 931 0 l 176 0 l 176 133 l 51 133 m 394 283 l 711 283 l 711 797 l 394 797 l 394 283 z "},"Z":{"ha":969,"x_min":51,"x_max":908,"o":"m 167 485 l 167 588 l 288 588 l 288 690 l 557 690 l 557 801 l 51 801 l 51 1089 l 908 1089 l 908 604 l 793 604 l 793 501 l 674 501 l 674 399 l 403 399 l 403 288 l 908 288 l 908 0 l 51 0 l 51 485 l 167 485 z "},"B":{"ha":943,"x_min":51,"x_max":883,"o":"m 883 1089 l 883 569 l 789 569 l 789 518 l 883 518 l 883 0 l 51 0 l 51 1089 l 883 1089 m 411 292 l 524 292 l 524 394 l 411 394 l 411 292 m 411 694 l 524 694 l 524 797 l 411 797 l 411 694 z "},"D":{"ha":978,"x_min":51,"x_max":917,"o":"m 818 1089 l 818 990 l 917 990 l 917 99 l 818 99 l 818 0 l 51 0 l 51 1089 l 818 1089 m 411 292 l 557 292 l 557 797 l 411 797 l 411 292 z "},"E":{"ha":926,"x_min":51,"x_max":875,"o":"m 875 1089 l 875 801 l 411 801 l 411 690 l 875 690 l 875 399 l 411 399 l 411 288 l 875 288 l 875 0 l 51 0 l 51 1089 l 875 1089 z "},"F":{"ha":917,"x_min":51,"x_max":875,"o":"m 875 1089 l 875 801 l 411 801 l 411 690 l 875 690 l 875 399 l 407 399 l 407 0 l 51 0 l 51 1089 l 875 1089 z "},"H":{"ha":994,"x_min":51,"x_max":935,"o":"m 399 1089 l 399 694 l 588 694 l 588 1089 l 935 1089 l 935 0 l 588 0 l 588 394 l 399 394 l 399 0 l 51 0 l 51 1089 l 399 1089 z "},"I":{"ha":454,"x_min":51,"x_max":394,"o":"m 394 1089 l 394 0 l 51 0 l 51 1089 l 394 1089 z "},"J":{"ha":900,"x_min":26,"x_max":840,"o":"m 493 288 l 493 1089 l 840 1089 l 840 0 l 26 0 l 26 288 l 493 288 z "},"K":{"ha":951,"x_min":51,"x_max":900,"o":"m 399 1089 l 399 806 l 450 806 l 450 956 l 553 956 l 553 1089 l 900 1089 l 900 707 l 785 707 l 785 604 l 678 604 l 678 485 l 785 485 l 785 382 l 900 382 l 900 0 l 553 0 l 553 133 l 450 133 l 450 283 l 399 283 l 399 0 l 51 0 l 51 1089 l 399 1089 z "},"L":{"ha":900,"x_min":51,"x_max":865,"o":"m 399 1089 l 399 288 l 865 288 l 865 0 l 51 0 l 51 1089 l 399 1089 z "},"P":{"ha":926,"x_min":51,"x_max":883,"o":"m 883 1089 l 883 313 l 407 313 l 407 0 l 51 0 l 51 1089 l 883 1089 m 411 575 l 524 575 l 524 832 l 411 832 l 411 575 z "},"R":{"ha":943,"x_min":51,"x_max":883,"o":"m 883 1089 l 883 467 l 789 467 l 789 415 l 883 415 l 883 0 l 528 0 l 528 394 l 407 394 l 407 0 l 51 0 l 51 1089 l 883 1089 m 411 694 l 524 694 l 524 797 l 411 797 l 411 694 z "},"S":{"ha":960,"x_min":51,"x_max":908,"o":"m 557 288 l 557 399 l 51 399 l 51 1089 l 908 1089 l 908 801 l 403 801 l 403 690 l 908 690 l 908 0 l 51 0 l 51 288 l 557 288 z "},"T":{"ha":917,"x_min":43,"x_max":875,"o":"m 43 801 l 43 1089 l 875 1089 l 875 801 l 639 801 l 639 0 l 279 0 l 279 801 l 43 801 z "},"V":{"ha":943,"x_min":43,"x_max":892,"o":"m 125 167 l 125 364 l 43 364 l 43 1089 l 390 1089 l 390 292 l 544 292 l 544 1089 l 892 1089 l 892 364 l 810 364 l 810 167 l 690 167 l 690 0 l 244 0 l 244 167 l 125 167 z "},"a":{"ha":943,"x_min":51,"x_max":883,"o":"m 883 1089 l 883 0 l 528 0 l 528 292 l 407 292 l 407 0 l 51 0 l 51 1089 l 883 1089 m 343 524 l 390 524 l 390 583 l 544 583 l 544 524 l 592 524 l 592 707 l 528 707 l 528 772 l 407 772 l 407 707 l 343 707 l 343 524 m 274 797 l 386 797 l 386 900 l 274 900 l 274 797 m 549 797 l 660 797 l 660 900 l 549 900 l 549 797 z "},"X":{"ha":1132,"x_min":51,"x_max":1081,"o":"m 185 382 l 185 485 l 283 485 l 283 604 l 185 604 l 185 707 l 51 707 l 51 1089 l 407 1089 l 407 956 l 510 956 l 510 857 l 621 857 l 621 956 l 725 956 l 725 1089 l 1081 1089 l 1081 707 l 947 707 l 947 604 l 849 604 l 849 485 l 947 485 l 947 382 l 1081 382 l 1081 0 l 725 0 l 725 133 l 621 133 l 621 232 l 510 232 l 510 133 l 407 133 l 407 0 l 51 0 l 51 382 l 185 382 z "},"W":{"ha":1124,"x_min":51,"x_max":1063,"o":"m 399 1089 l 399 626 l 450 626 l 450 746 l 664 746 l 664 626 l 725 626 l 725 1089 l 1063 1089 l 1063 0 l 725 0 l 725 133 l 588 133 l 588 257 l 536 257 l 536 133 l 399 133 l 399 0 l 51 0 l 51 1089 l 399 1089 z "}}}
